<svg id="Layer_1" data-name="Layer 1" xmlns="http://www.w3.org/2000/svg" viewBox="0 0 170.66 222.49"><defs><style>.cls-1{fill:#63c5b3;}</style></defs><title>pg vs stanza</title><path class="cls-1" d="M151.44,77.93c0-21.79-13.68-25.91-22-26.39,6.14-33.2-22.87-47.65-30.91-47.65-8.6,0-13.22,2.64-13.22,2.64S80.7,3.89,72.1,3.89c-8,0-37,14.46-30.91,47.65-8.31.48-22,4.6-22,26.39,0,23.47-5.29,28.43-5.29,28.43S40.37,128,40.37,96.44c0-14.38,1.26-22.92,2.56-27.89a99.11,99.11,0,0,0,4,17.67c7,20.92,20.19,32.14,38.25,32.45l.74,0A40.7,40.7,0,0,0,113.74,107c8.33-8.25,13.23-20.15,14.66-35.45,1,5.19,1.87,13.06,1.87,24.86,0,31.58,26.44,9.92,26.44,9.92S151.44,101.4,151.44,77.93Zm-43.8,22.72a32,32,0,0,1-22.06,9.21H85.4c-14.15-.23-24.25-9.05-30-26.23A98.26,98.26,0,0,1,50.81,57C63,53.86,85.33,46.26,85.33,33c0,13.3,22.38,20.9,34.59,24.06C120.71,77,116.59,91.69,107.64,100.65Z"/><path class="cls-1" d="M118.4,123.08a4.33,4.33,0,0,0-6.43-.88L88.15,142.61a4.34,4.34,0,0,1-5.64,0L58.69,122.19a4.33,4.33,0,0,0-6.43.88l-6,8.94,14.83,26a4.34,4.34,0,0,0,6.48,1.24l9.87-7.89A2.17,2.17,0,0,1,81,153V218.6h8.67V153a2.17,2.17,0,0,1,3.52-1.7l9.87,7.89a4.34,4.34,0,0,0,6.48-1.24l14.83-26Z"/><path class="cls-1" d="M71.27,168.35a14.06,14.06,0,0,1-18.58-5.55l-16.1-28.17-17,7.08a13,13,0,0,0-8,12v56.23a8.67,8.67,0,0,0,8.67,8.67h51Z"/><path class="cls-1" d="M151,141.69l-17-7.08L118,162.79a14.06,14.06,0,0,1-18.58,5.55v50.25h51a8.67,8.67,0,0,0,8.67-8.67V153.7A13,13,0,0,0,151,141.69Z"/></svg>