<svg id="Layer_1" data-name="Layer 1" xmlns="http://www.w3.org/2000/svg" viewBox="0 0 170.66 222.49"><defs><style>.cls-1{fill:#63c5b3;}</style></defs><title>pg vs stanza</title><path class="cls-1" d="M38.76,141.53a2.4,2.4,0,0,0,.09.27C60.09,176,80.75,204.55,83,204.95l1.81.32a2.47,2.47,0,0,0,.48,0,3,3,0,0,0,.48,0l1.81-.32c2.28-.4,22.95-28.92,44.17-63.15,0-.08,0-.18.09-.26l-13.13-2.21-33.43,14-33.58-14Z"/><path class="cls-1" d="M4.36,169.75v42.08c0,4,3.75,7.33,8.38,7.33h14V176.5A19.42,19.42,0,0,0,21,162.68L10.62,152.32A28,28,0,0,0,4.36,169.75Z"/><path class="cls-1" d="M157.92,219.16c4.63,0,8.38-3.28,8.38-7.33V169.75c0-13.39-6.25-17.42-6.25-17.42l-10.36,10.36A19.42,19.42,0,0,0,144,176.51v42.66Z"/><path class="cls-1" d="M138.7,142.69h-.06l-.69,1.37a7.12,7.12,0,0,1-.59,1.2c-9.77,15.75-20.21,31.59-29.41,44.59-4,5.72-7.61,10.54-10.32,14-4.18,5.27-6,7.11-8.88,7.6l-1.77.31a9,9,0,0,1-1.65.15,9.62,9.62,0,0,1-1.66-.15l-1.77-.32c-2.82-.49-4.69-2.33-8.87-7.6-2.71-3.41-6.28-8.24-10.32-14-9.2-13-19.64-28.83-29.41-44.59a6.65,6.65,0,0,1-.62-1.28l-.63-1.31-.12,0a60.29,60.29,0,0,0-17.3,5.72h0l10.32,10.32a25,25,0,0,1,7.36,17.77v42.66H138.39V176.5a25,25,0,0,1,7.36-17.77l10.31-10.32A60.57,60.57,0,0,0,138.7,142.69Z"/><path class="cls-1" d="M140,80.57h0a15.2,15.2,0,0,0-5.91-9.14A2.55,2.55,0,0,1,133,68.18c2.48-9.85,2.79-19.75-.58-29.44-5.89-16.92-18.08-27.31-34.76-32.88A60.85,60.85,0,0,0,90.77,4c-9.39-2-15.89,1.2-15.89,1.2,3.86,2.38,8.92,3.1,10.44,8.42C75.16,9,64.87,8,53.67,11.68c5.79.67,11.06.92,15.91,5-7.3-.13-13.75,1-19.74,4.33a18,18,0,0,1,3.77.06,12.19,12.19,0,0,1,2.92,1.51c0,.26,0,.29,0,.55a42,42,0,0,0-5.07,1.81C43.58,29,39.34,35.86,37.21,44.13,35.12,52.24,36,60.3,38.41,68.21c.41,1.31.31,2-.92,2.84A15.21,15.21,0,0,0,31,80.77h0a16,16,0,0,0-.5,3.7v.45a13.87,13.87,0,0,0,.63,4.15c1,3.12,2.22,6.13,4.71,8.41s5.06,3.87,7.51,5.9a10.26,10.26,0,0,1,2.76,3.07c7.74,15.62,20.47,24.6,37.32,27.87,4.86.94,9.52-.88,14-2.75,12.49-5.29,22.41-13.39,27.95-26.15a3,3,0,0,1,1.21-1.45c6.48-3.25,11.21-7.93,13.4-14.7a13.49,13.49,0,0,0,.63-4.15v-.22A17.59,17.59,0,0,0,140,80.57ZM65.27,44.37,59.76,55s7.64.36,17.75-10.56a69.36,69.36,0,0,0,6.3-8l-1.21,8h0L81.6,51s4.33.23,10.53-6.57a58,58,0,0,0,7.82-11.34L97.67,44.5l-1.14,5.67a54.37,54.37,0,0,0,9.59-5.64c13,5.24,16.72,16.17,17.63,24.13a16.52,16.52,0,0,0,1.08,4.26h-6.28A15.55,15.55,0,0,0,90.8,71.4a9.33,9.33,0,0,0-10.39,0,15.55,15.55,0,0,0-27.74,1.53H46.07a15.92,15.92,0,0,0,1.36-4.75C48.35,60.7,51.88,44.32,65.27,44.37Zm48.37,34.79a9.34,9.34,0,1,1-9.34-9.34A9.35,9.35,0,0,1,113.63,79.16Zm-37.35,0a9.34,9.34,0,1,1-9.34-9.34A9.35,9.35,0,0,1,76.28,79.16Zm54.89,7.57a12.33,12.33,0,0,1-7.2,8.32c-4,1.8-6,4.81-7.87,8.62-5.89,11.94-16.1,18.64-28.79,21.68a12.68,12.68,0,0,1-6.43-.57C68,120.64,58.18,113,53.13,99.95a7.58,7.58,0,0,0-3.43-3.3c-3.36-1.83-6.61-3.72-8.67-7.08-2.2-3.59-1.88-7.68.84-10.41h9.5a15.56,15.56,0,0,0,31.12,0,3.11,3.11,0,0,1,6.23,0,15.56,15.56,0,0,0,31.12,0h9.52A7.88,7.88,0,0,1,131.18,86.73Z"/></svg>