<svg id="Layer_1" data-name="Layer 1" xmlns="http://www.w3.org/2000/svg" viewBox="0 0 50 50"><defs><style>.cls-1{fill:#58ccb6;}</style></defs><title>residence page icons</title><path class="cls-1" d="M35,5.69a.69.69,0,0,0-.48.22L31.67,9.05,29.88,7.27a.69.69,0,0,0-1,0,3.92,3.92,0,0,0,5.55,5.55.69.69,0,0,0,0-1L32.65,10,35.1,7.36l6,5.79-2,1.22a.69.69,0,0,0-.32.59V18.1h0A2.77,2.77,0,0,0,36,20.86H3.62a.69.69,0,0,0-.69.69v2.76a.69.69,0,0,0,.69.69H5.69V43.62a.69.69,0,0,0,.69.69H9.14a.69.69,0,0,0,.69-.64L11.16,25H38.84l1.33,18.67a.69.69,0,0,0,.69.64h2.76a.69.69,0,0,0,.69-.69V25h2.07a.69.69,0,0,0,.69-.69V21.55a.69.69,0,0,0-.69-.69H42.93a2.77,2.77,0,0,0-2.72-2.75V15.35l2.39-1.49a.69.69,0,0,0,.11-1.08l-7.17-6.9A.69.69,0,0,0,35,5.69ZM29.68,9l1.52,1.52L32.71,12A2.45,2.45,0,0,1,31,12.5a2.54,2.54,0,0,1-1.8-1.8A2.45,2.45,0,0,1,29.68,9ZM38.8,19.48h1.38a1.36,1.36,0,0,1,1.38,1.38H37.42A1.36,1.36,0,0,1,38.8,19.48ZM4.31,22.24H45.69v1.38H4.31ZM7.07,25H9.77L8.49,42.93H7.07Zm33.16,0h2.71V42.93H41.51Z"/></svg>